<svg width="22" height="21" viewBox="0 0 22 21" fill="none" xmlns="http://www.w3.org/2000/svg">
<path d="M11.005 13.1735C12.3938 13.1735 13.5197 12.0476 13.5197 10.6588C13.5197 9.26993 12.3938 8.14404 11.005 8.14404C9.61612 8.14404 8.49023 9.26993 8.49023 10.6588C8.49023 12.0476 9.61612 13.1735 11.005 13.1735Z" stroke="white" strokeWidth="2" strokeLinecap="round" strokeLinejoin="round"/>
<path d="M17.2069 13.1734C17.0953 13.4263 17.0621 13.7067 17.1114 13.9786C17.1607 14.2506 17.2903 14.5015 17.4835 14.699L17.5338 14.7493C17.6897 14.905 17.8134 15.0899 17.8977 15.2935C17.9821 15.497 18.0255 15.7151 18.0255 15.9354C18.0255 16.1558 17.9821 16.3739 17.8977 16.5774C17.8134 16.781 17.6897 16.9659 17.5338 17.1216C17.3781 17.2774 17.1932 17.4011 16.9897 17.4855C16.7862 17.5698 16.568 17.6133 16.3477 17.6133C16.1274 17.6133 15.9092 17.5698 15.7057 17.4855C15.5022 17.4011 15.3173 17.2774 15.1616 17.1216L15.1113 17.0713C14.9138 16.878 14.6628 16.7484 14.3909 16.6991C14.119 16.6498 13.8385 16.6831 13.5857 16.7947C13.3378 16.9009 13.1263 17.0773 12.9774 17.3022C12.8285 17.5271 12.7485 17.7907 12.7475 18.0604V18.2029C12.7475 18.6475 12.5708 19.074 12.2564 19.3884C11.942 19.7028 11.5156 19.8794 11.071 19.8794C10.6263 19.8794 10.1999 19.7028 9.88551 19.3884C9.5711 19.074 9.39447 18.6475 9.39447 18.2029V18.1275C9.38798 17.85 9.29818 17.5809 9.13672 17.3552C8.97527 17.1295 8.74964 16.9575 8.48917 16.8617C8.23634 16.7501 7.95588 16.7168 7.68396 16.7661C7.41204 16.8155 7.16112 16.9451 6.96356 17.1383L6.91327 17.1886C6.75757 17.3445 6.57267 17.4682 6.36915 17.5525C6.16562 17.6369 5.94747 17.6803 5.72715 17.6803C5.50683 17.6803 5.28868 17.6369 5.08515 17.5525C4.88163 17.4682 4.69673 17.3445 4.54103 17.1886C4.38516 17.0329 4.2615 16.848 4.17713 16.6445C4.09276 16.441 4.04934 16.2228 4.04934 16.0025C4.04934 15.7822 4.09276 15.564 4.17713 15.3605C4.2615 15.157 4.38516 14.9721 4.54103 14.8164L4.59133 14.7661C4.78457 14.5685 4.91421 14.3176 4.96351 14.0457C5.01282 13.7738 4.97953 13.4933 4.86795 13.2405C4.76169 12.9926 4.58525 12.7811 4.36036 12.6322C4.13547 12.4832 3.87193 12.4033 3.6022 12.4022H3.45969C3.01506 12.4022 2.58864 12.2256 2.27424 11.9112C1.95983 11.5968 1.7832 11.1704 1.7832 10.7258C1.7832 10.2811 1.95983 9.8547 2.27424 9.54029C2.58864 9.22589 3.01506 9.04926 3.45969 9.04926H3.53514C3.81259 9.04277 4.08168 8.95296 4.30741 8.79151C4.53315 8.63006 4.70509 8.40443 4.80089 8.14395C4.91247 7.89113 4.94576 7.61067 4.89645 7.33875C4.84715 7.06682 4.71751 6.8159 4.52427 6.61835L4.47397 6.56805C4.3181 6.41235 4.19444 6.22745 4.11007 6.02393C4.0257 5.82041 3.98228 5.60225 3.98228 5.38193C3.98228 5.16162 4.0257 4.94346 4.11007 4.73994C4.19444 4.53642 4.3181 4.35152 4.47397 4.19582C4.62967 4.03994 4.81457 3.91629 5.01809 3.83192C5.22162 3.74755 5.43977 3.70412 5.66009 3.70412C5.88041 3.70412 6.09856 3.74755 6.30209 3.83192C6.50561 3.91629 6.69051 4.03994 6.84621 4.19582L6.8965 4.24611C7.09406 4.43936 7.34498 4.56899 7.6169 4.6183C7.88882 4.6676 8.16928 4.63432 8.42211 4.52273H8.48917C8.7371 4.41647 8.94854 4.24004 9.09748 4.01515C9.24641 3.79025 9.32634 3.52672 9.32741 3.25698V3.11448C9.32741 2.66985 9.50405 2.24342 9.81845 1.92902C10.1329 1.61462 10.5593 1.43799 11.0039 1.43799C11.4485 1.43799 11.875 1.61462 12.1894 1.92902C12.5038 2.24342 12.6804 2.66985 12.6804 3.11448V3.18992C12.6815 3.45966 12.7614 3.72319 12.9103 3.94809C13.0593 4.17298 13.2707 4.34941 13.5186 4.45567C13.7715 4.56726 14.0519 4.60054 14.3239 4.55124C14.5958 4.50193 14.8467 4.3723 15.0443 4.17905L15.0945 4.12876C15.2502 3.97288 15.4351 3.84923 15.6387 3.76486C15.8422 3.68049 16.0603 3.63706 16.2807 3.63706C16.501 3.63706 16.7191 3.68049 16.9227 3.76486C17.1262 3.84923 17.3111 3.97288 17.4668 4.12876C17.6227 4.28446 17.7463 4.46936 17.8307 4.67288C17.915 4.8764 17.9585 5.09456 17.9585 5.31487C17.9585 5.53519 17.915 5.75335 17.8307 5.95687C17.7463 6.16039 17.6227 6.34529 17.4668 6.50099L17.4165 6.55129C17.2232 6.74884 17.0936 6.99976 17.0443 7.27169C16.995 7.54361 17.0283 7.82407 17.1399 8.07689V8.14395C17.2461 8.39188 17.4226 8.60333 17.6475 8.75226C17.8723 8.9012 18.1359 8.98112 18.4056 8.9822H18.5481C18.9928 8.9822 19.4192 9.15883 19.7336 9.47323C20.048 9.78764 20.2246 10.2141 20.2246 10.6587C20.2246 11.1033 20.048 11.5297 19.7336 11.8441C19.4192 12.1586 18.9928 12.3352 18.5481 12.3352H18.4727C18.2029 12.3363 17.9394 12.4162 17.7145 12.5651C17.4896 12.7141 17.3132 12.9255 17.2069 13.1734V13.1734Z" stroke="white" strokeWidth="2" strokeLinecap="round" strokeLinejoin="round"/>
</svg>
